<svg width="147" height="67" viewBox="0 0 147 67" fill="none" xmlns="http://www.w3.org/2000/svg">
    <path d="M2.11712 51.5614L10.9772 60.7729C11.7313 61.5569 12.7722 62 13.8601 62H125.22C126.261 62 127.26 61.5946 128.007 60.8699L144.786 44.5783C145.562 43.8251 146 42.7898 146 41.7084V21.0152C146 20.0995 145.686 19.2116 145.11 18.4997L136.201 7.48452C135.441 6.54558 134.298 6 133.091 6H20.6398C19.6834 6 18.7586 6.34271 18.0331 6.96599L2.39333 20.4029C1.50885 21.1628 1 22.2709 1 23.4369V48.7885C1 49.8225 1.40036 50.8162 2.11712 51.5614Z" stroke="white"></path>
</svg>