<svg width="36" height="42" viewBox="0 0 36 42" fill="none" xmlns="http://www.w3.org/2000/svg">
    <defs>
        <filter id="blur">
            <feGaussianBlur stdDeviation="4"/>
        </filter>
    </defs>
    <path filter="url(#blur)" d="M16.5 9.86603C17.4282 9.33013 18.5718 9.33013 19.5 9.86603L26.8923 14.134C27.8205 14.6699 28.3923 15.6603 28.3923 16.7321V25.2679C28.3923 26.3397 27.8205 27.3301 26.8923 27.866L19.5 32.134C18.5718 32.6699 17.4282 32.6699 16.5 32.134L9.1077 27.866C8.17949 27.3301 7.6077 26.3397 7.6077 25.2679V16.7321C7.6077 15.6603 8.17949 14.6699 9.1077 14.134L16.5 9.86603Z" fill="white" fill-opacity="0.6"></path>
    <path d="M16.5 1.86603C17.4282 1.33013 18.5718 1.33013 19.5 1.86603L33.8205 10.134C34.7487 10.6699 35.3205 11.6603 35.3205 12.7321V29.2679C35.3205 30.3397 34.7487 31.3301 33.8205 31.866L19.5 40.134C18.5718 40.6699 17.4282 40.6699 16.5 40.134L2.17949 31.866C1.25129 31.3301 0.679491 30.3397 0.679491 29.2679V12.7321C0.679491 11.6603 1.25129 10.6699 2.17949 10.134L16.5 1.86603Z" stroke="white" stroke-linecap="round" stroke-linejoin="round"></path>
    <path d="M17.5 17.2887C17.8094 17.11 18.1906 17.11 18.5 17.2887L20.9641 18.7113C21.2735 18.89 21.4641 19.2201 21.4641 19.5774V22.4226C21.4641 22.7799 21.2735 23.11 20.9641 23.2887L18.5 24.7113C18.1906 24.89 17.8094 24.89 17.5 24.7113L15.0359 23.2887C14.7265 23.11 14.5359 22.7799 14.5359 22.4226V19.5774C14.5359 19.2201 14.7265 18.89 15.0359 18.7113L17.5 17.2887Z" fill="white"></path>

</svg>
